PathFileType	4	(X/Y/Z)	/Users/itak/Documents/Research/Walk-IL/dataset/trc/00324_00011.trc
DataRate	CameraRate	NumFrames	NumMarkers	Units	OrigDataRate	OrigDataStartFrame	OrigNumFrames
100.000000	100.000000	4	56	mm	100.000000	240	480
Frame#	Time	LPSI			L3			STRN			T10			C7			CLAV			RBAK			LBAK			LSHO			LUPA			LAEL			LAOL			LWTS			LWPS			LFRA			LHPS			LHTS			RSHO			RUPA			RAEL			RAOL			RWTS			RWPS			RFRA			RIFD			RHTS			RHPS			RBHD			LFHD			RFHD			LBHD			LHIP			RASI			LASI			LKNE			LTHI			LANK			LTIP			LTOE			LMT1			LMT5			LHEE			RKNE			RANK			RTIP			RTOE			RMT1			RMT5			RHEE			RPSI			LIFD			RHIP			RTHI			*53			*54			*55			
		X1	Y1	Z1	X2	Y2	Z2	X3	Y3	Z3	X4	Y4	Z4	X5	Y5	Z5	X6	Y6	Z6	X7	Y7	Z7	X8	Y8	Z8	X9	Y9	Z9	X10	Y10	Z10	X11	Y11	Z11	X12	Y12	Z12	X13	Y13	Z13	X14	Y14	Z14	X15	Y15	Z15	X16	Y16	Z16	X17	Y17	Z17	X18	Y18	Z18	X19	Y19	Z19	X20	Y20	Z20	X21	Y21	Z21	X22	Y22	Z22	X23	Y23	Z23	X24	Y24	Z24	X25	Y25	Z25	X26	Y26	Z26	X27	Y27	Z27	X28	Y28	Z28	X29	Y29	Z29	X30	Y30	Z30	X31	Y31	Z31	X32	Y32	Z32	X33	Y33	Z33	X34	Y34	Z34	X35	Y35	Z35	X36	Y36	Z36	X37	Y37	Z37	X38	Y38	Z38	X39	Y39	Z39	X40	Y40	Z40	X41	Y41	Z41	X42	Y42	Z42	X43	Y43	Z43	X44	Y44	Z44	X45	Y45	Z45	X46	Y46	Z46	X47	Y47	Z47	X48	Y48	Z48	X49	Y49	Z49	X50	Y50	Z50	X51	Y51	Z51	X52	Y52	Z52	X53	Y53	Z53	X54	Y54	Z54	X55	Y55	Z55	X56	Y56	Z56	

241	2.4	-396.6185607910156	967.5966186523438	34.18378067016602	-389.4866943359375	1032.397094726562	101.8459777832031	-173.5950317382812	1209.033813476562	64.09686279296875	-402.7539978027344	1149.383056640625	88.27730560302734	-362.3493347167969	1397.72216796875	63.17354965209961	-212.8424377441406	1333.387573242188	60.96635437011719	-405.5697631835938	1260.250854492188	139.4642944335938	-382.6534423828125	1359.42138671875	-35.04652786254883	-301.5306091308594	1371.856567382812	-97.45278167724609	-333.869873046875	1251.925903320312	-157.814453125	-337.7508850097656	1049.14111328125	-168.8874053955078	-389.8838500976562	1040.837158203125	-101.7785110473633	-274.7119140625	792.75927734375	-146.0559692382812	-326.194091796875	792.6113891601562	-192.8068389892578	-338.6948852539062	944.7445068359375	-178.9319152832031	-342.40087890625	724.1527099609375	-187.6186676025391	-281.823974609375	716.244140625	-165.8313598632812	-297.8876647949219	1391.187622070312	221.6822814941406	-307.5124816894531	1331.895874023438	291.2200927734375	-309.0081481933594	1066.876586914062	344.9698486328125	-347.3469543457031	1054.641235351562	257.8017272949219	-200.88720703125	836.643798828125	321.2112731933594	-241.9823150634766	825.5977172851562	385.8373718261719	-286.9698486328125	999.9922485351562	359.2813720703125	-191.6355438232422	663.7229614257812	342.8576354980469	-177.1677856445312	735.5467529296875	343.8420715332031	-229.4966125488281	741.8611450195312	388.1226196289062	-318.5897521972656	1599.562377929688	138.2144317626953	-151.9377593994141	1614.229248046875	11.79321098327637	-158.3786315917969	1614.465454101562	113.3405914306641	-337.3546447753906	1593.770385742188	-6.100508213043213	-321.092529296875	906.992431640625	-75.41384124755859	-197.3411560058594	956.5279541015625	213.4119415283203	-197.3265380859375	940.9586181640625	-29.00312995910645	-188.9266510009766	464.4795837402344	-67.61933898925781	-210.3756561279297	593.1420288085938	-74.87991333007812	-547.40625	220.2277374267578	-44.38561630249023	-363.9511108398438	323.8338623046875	-68.89084625244141	-433.4772338867188	51.471435546875	7.359026432037354	-478.919677734375	97.89107513427734	52.55657196044922	-487.4561462402344	111.1379318237305	-61.71181106567383	-562.7772827148438	245.4032440185547	25.03158569335938	-198.99267578125	462.2478637695312	218.3530578613281	-253.4799652099609	46.35760498046875	173.4425506591797	-187.7689361572266	340.5598449707031	204.156005859375	-62.32781982421875	46.28662872314453	111.6978912353516	-121.0006713867188	42.42784881591797	72.40865325927734	-153.4493713378906	33.5520133972168	184.6896820068359	-305.7311096191406	51.87997436523438	127.4705963134766	-385.5949401855469	973.8218383789062	163.3439331054688	-304.8791809082031	632.581787109375	-145.2658843994141	-295.7998657226562	925.1830444335938	267.6183166503906	-199.5069732666016	722.8287353515625	261.1809692382812	nan	nan	nan	nan	nan	nan	nan	nan	nan	
242	2.41	-387.3123779296875	968.820556640625	34.36531448364258	-380.4937744140625	1033.29541015625	102.5940780639648	-164.2161865234375	1210.17431640625	64.33357238769531	-393.75732421875	1150.558715820312	89.73635864257812	-353.1279602050781	1398.812622070312	64.44781494140625	-203.7899932861328	1334.416015625	61.42417144775391	-396.2345581054688	1261.4326171875	141.0431976318359	-373.9598083496094	1360.542236328125	-33.53552627563477	-293.2753295898438	1372.626831054688	-96.65619659423828	-328.3226928710938	1253.173217773438	-156.2933349609375	-337.2859497070312	1050.447509765625	-166.8535308837891	-388.1089172363281	1043.521728515625	-98.67051696777344	-280.4358520507812	792.5677490234375	-144.6716918945312	-333.0581359863281	793.4758911132812	-190.2060394287109	-341.1858825683594	946.1168823242188	-176.6062164306641	-350.9574279785156	725.4794921875	-184.1877746582031	-290.5101013183594	716.13525390625	-163.4267730712891	-288.0676574707031	1392.079345703125	222.7156982421875	-296.7843017578125	1332.55712890625	292.2937316894531	-291.5374755859375	1067.930908203125	347.7759704589844	-332.587646484375	1054.372314453125	261.8759155273438	-179.2258605957031	839.92529296875	320.467041015625	-217.1741943359375	828.3911743164062	386.7398681640625	-267.4003601074219	1001.443725585938	361.5794372558594	-164.676513671875	667.6580200195312	342.4375305175781	-151.9021759033203	739.75537109375	342.4103698730469	-202.4129638671875	745.086669921875	389.0276794433594	-308.4847106933594	1600.863403320312	139.2178802490234	-142.2931518554688	1614.822265625	12.17349815368652	-148.3250732421875	1615.203125	113.7351226806641	-327.8294677734375	1594.961547851562	-5.03632640838623	-311.434814453125	908.6234741210938	-74.95667266845703	-188.6651611328125	957.2254028320312	214.6503295898438	-187.9490661621094	942.9691162109375	-27.7010555267334	-168.7361297607422	467.9376831054688	-67.02490234375	-193.3685455322266	596.211669921875	-74.69439697265625	-522.712158203125	216.2552795410156	-43.34721374511719	-341.2043762207031	324.0733337402344	-68.046142578125	-403.0206604003906	51.33174896240234	7.880466938018799	-449.65185546875	96.55744171142578	52.90629196166992	-458.7718811035156	109.7541427612305	-61.09657669067383	-538.807861328125	240.7570190429688	26.12534713745117	-196.2476043701172	462.0757751464844	218.6274871826172	-253.4867706298828	46.30972290039062	173.4510955810547	-186.1795654296875	340.3681945800781	204.3720245361328	-62.25066375732422	46.16133117675781	111.6398239135742	-120.9554138183594	42.50209808349609	72.40789794921875	-153.4356079101562	33.52192687988281	184.7163848876953	-305.6981506347656	51.85651016235352	127.3421936035156	-376.6213989257812	974.834228515625	163.5456085205078	-314.54345703125	633.2998046875	-142.3624267578125	-287.718505859375	925.8192749023438	267.9848327636719	-192.7907562255859	722.750732421875	261.2049560546875	nan	nan	nan	nan	nan	nan	nan	nan	nan	
243	2.42	-378.0360107421875	969.9771728515625	34.40278625488281	-371.5626525878906	1034.073974609375	103.1456146240234	-154.9389190673828	1211.28369140625	64.718017578125	-384.9238586425781	1151.660034179688	91.04126739501953	-343.9837036132812	1399.821655273438	65.62751770019531	-194.7897491455078	1335.423706054688	61.93814086914062	-386.912841796875	1262.519897460938	142.4812164306641	-365.2624816894531	1361.61083984375	-32.12082672119141	-284.9586181640625	1373.387084960938	-95.84877777099609	-322.6358032226562	1254.55029296875	-154.8513793945312	-336.6724243164062	1052.033447265625	-164.8816986083984	-386.3569030761719	1046.459350585938	-95.68251800537109	-286.0119018554688	792.7640991210938	-143.0654602050781	-339.5166625976562	794.7803955078125	-187.5668334960938	-343.4775695800781	947.80712890625	-174.2983093261719	-358.981689453125	727.2559204101562	-180.7555999755859	-299.1242370605469	716.114013671875	-160.6810760498047	-278.4840393066406	1392.95654296875	223.6917877197266	-286.3477783203125	1333.251586914062	293.29052734375	-274.2197265625	1069.192993164062	350.2856140136719	-317.6872863769531	1054.191162109375	265.6749572753906	-157.7147369384766	843.5096435546875	319.7119750976562	-192.5622100830078	831.6580810546875	387.4108276367188	-248.0319671630859	1003.162780761719	363.6454162597656	-137.9171142578125	672.0752563476562	341.9285278320312	-126.8708572387695	744.3656616210938	340.9664306640625	-175.5557861328125	748.8126220703125	389.7451782226562	-298.4899291992188	1602.063842773438	140.1564178466797	-132.7360076904297	1615.363891601562	12.53089237213135	-138.3809967041016	1615.886108398438	114.1023406982422	-318.3908386230469	1596.044311523438	-4.038585186004639	-301.7392272949219	910.2179565429688	-74.60183715820312	-180.1262969970703	957.77880859375	215.9043273925781	-178.5724945068359	944.8740234375	-26.38055992126465	-149.0907592773438	471.4668579101562	-66.35073089599609	-176.8271636962891	599.4013061523438	-74.51393890380859	-497.5048828125	211.052734375	-42.30018997192383	-318.4876708984375	323.8467102050781	-67.13650512695312	-371.17041015625	50.81242752075195	8.275779724121094	-419.1706237792969	94.59857177734375	53.10664367675781	-429.0774536132812	107.7111053466797	-60.56191635131836	-514.4160766601562	234.7268676757812	27.25482177734375	-193.4822540283203	461.8727111816406	218.8839874267578	-253.4718475341797	46.30221176147461	173.4331512451172	-184.5896911621094	340.1792907714844	204.5432891845703	-62.17543411254883	46.0620231628418	111.5780868530273	-120.9133453369141	42.58303833007812	72.41136932373047	-153.4257507324219	33.49257278442383	184.7435455322266	-305.6530456542969	51.81399917602539	127.1901321411133	-367.7227478027344	975.7135620117188	163.6302947998047	-323.5668640136719	634.6229248046875	-139.4028625488281	-279.7388610839844	926.3034057617188	268.2877197265625	-186.1786499023438	722.5682983398438	261.2017211914062	nan	nan	nan	nan	nan	nan	nan	nan	nan	
244	2.43	-368.8028259277344	971.0006103515625	34.29498672485352	-362.7120361328125	1034.735229492188	103.4881591796875	-145.763427734375	1212.34375	65.24369049072266	-376.2402648925781	1152.6767578125	92.19916534423828	-334.9078674316406	1400.741943359375	66.71875762939453	-185.8270874023438	1336.392333984375	62.51448059082031	-377.6123657226562	1263.504760742188	143.7840423583984	-356.5555725097656	1362.623291015625	-30.79645156860352	-276.5765380859375	1374.1416015625	-95.02651977539062	-316.7765502929688	1256.049682617188	-153.4916687011719	-335.834716796875	1053.890014648438	-162.9837646484375	-384.545166015625	1049.646606445312	-92.81452178955078	-291.3591003417969	793.3262329101562	-141.2429962158203	-345.5048522949219	796.511474609375	-184.897705078125	-345.4931640625	949.8040771484375	-172.0034942626953	-366.4396362304688	729.4701538085938	-177.3563995361328	-307.685302734375	716.0474853515625	-157.6179656982422	-269.1107482910156	1393.81689453125	224.6112670898438	-276.1710815429688	1333.97900390625	294.21826171875	-257.1069641113281	1070.653442382812	352.496337890625	-302.6799926757812	1054.12451171875	269.170654296875	-136.3651275634766	847.42431640625	318.9676208496094	-168.2499542236328	835.365234375	387.86962890625	-228.935791015625	1005.143249511719	365.4772644042969	-111.3672485351562	676.9581298828125	341.358642578125	-102.103874206543	749.3971557617188	339.555908203125	-149.0151672363281	753.0092163085938	390.2698059082031	-288.6091613769531	1603.158935546875	141.0253448486328	-123.2604370117188	1615.849853515625	12.86285972595215	-128.5445098876953	1616.50830078125	114.4404983520508	-309.0287780761719	1597.013061523438	-3.107328414916992	-291.9970703125	911.7197875976562	-74.35955810546875	-171.7020874023438	958.1640014648438	217.1629180908203	-169.1819458007812	946.6495361328125	-25.06009292602539	-130.0281219482422	475.0149536132812	-65.60223388671875	-160.7706298828125	602.64453125	-74.32640838623047	-471.7395935058594	204.6818389892578	-41.24782562255859	-295.7969665527344	323.1335754394531	-66.172607421875	-338.0429382324219	50.01825332641602	8.488673210144043	-387.5662536621094	92.04916381835938	53.17592620849609	-398.466552734375	105.0552597045898	-60.11418151855469	-489.512451171875	227.3728179931641	28.4195442199707	-190.7203063964844	461.6310119628906	219.1332550048828	-253.4423065185547	46.32790374755859	173.4014892578125	-182.9873199462891	339.9788513183594	204.6858978271484	-62.10390090942383	45.98006439208984	111.5183944702148	-120.8818740844727	42.65473937988281	72.42623138427734	-153.4167175292969	33.46541213989258	184.7685699462891	-305.593017578125	51.7845458984375	127.0445938110352	-358.9004211425781	976.4332885742188	163.5948333740234	-332.0550231933594	636.4451293945312	-136.3891296386719	-271.8412170410156	926.6170043945312	268.5252685546875	-179.6954803466797	722.2694702148438	261.188232421875	nan	nan	nan	nan	nan	nan	nan	nan	nan	
